<?xml version="1.0" encoding="utf-8" ?>
<svg xmlns="http://www.w3.org/2000/svg" xmlns:xlink="http://www.w3.org/1999/xlink" width="1024" height="1024">
	<path fill="#FEFEFE" d="M0 0L1024 0L1024 1024L0 1024L0 0Z"/>
	<path fill="#E16349" d="M211.007 435.302C212.241 435.441 213.374 435.585 214.45 436.253C216.631 437.607 218.201 439.672 218.669 442.214C219.487 446.656 217.732 451.831 215.024 455.34C211.48 459.933 207.245 461.198 201.793 462.032C199.856 461.736 197.399 461.422 195.93 459.967C194.933 458.979 194.441 457.995 194.456 456.587C194.505 451.9 207.204 439.161 211.007 435.302Z"/>
	<path fill="#D9E5EE" d="M120.781 428.361C117.537 422.148 111.457 419.162 108.891 411.337C106.337 403.551 106.808 394.037 110.465 386.678C114.712 378.131 122.328 372.146 131.342 369.261C144.991 364.892 162.54 372.572 174.621 378.869C160.484 388.781 133.572 417.427 126.868 433.045C125.113 431.305 123.046 429.373 120.781 428.361Z"/>
	<path fill="#668CC3" d="M120.781 428.361C123.046 429.373 125.113 431.305 126.868 433.045C125.354 437.062 124.415 441.813 122.651 445.619C121.225 446.278 120.69 447.683 119.902 449.015C112.372 461.725 105.82 475.075 98.5346 487.938L84.5261 512.884C81.6243 518.07 78.3785 523.263 76.0646 528.737C80.206 540.705 86.0432 552.502 90.9113 564.227Q107.055 604.033 123.948 643.526C128.144 653.591 148.722 707.736 152.029 711.526C152.407 712.851 152.425 714.013 153.547 714.866C161.611 715.281 169.756 715.014 177.831 714.99L216.029 714.949C222.539 714.946 229.175 714.677 235.67 715.086C208.69 716.736 180.632 714.873 153.499 715.413C155.281 720.038 165.074 747.286 167.04 748.457C163.652 748.665 160.265 748.907 156.869 748.926C155.751 743.877 145.279 719.871 142.155 714.965C141.811 713.825 141.556 712.677 141.288 711.518C139.326 705.228 136.499 699.066 133.978 692.978L121.614 663.116L82.4758 568.03C77.0269 555.026 69.7578 540.382 65.4681 527.176C78.0258 506.651 89.271 485.106 100.869 464.012C107.384 452.164 114.801 440.445 120.781 428.361Z"/>
	<path d="M263.95 526.636C267.81 520.379 272.553 514.358 277.693 509.107C281.775 504.936 289.764 497.329 295.962 497.254C282.651 504.021 270.09 517.064 265.491 531.471C262.9 539.586 261.604 548.348 259.971 556.713L252.199 596.938L243.747 641.032C242 650.346 239.553 660.164 239.544 669.665Q239.558 671.285 239.669 672.901Q239.78 674.518 239.988 676.124Q240.196 677.731 240.5 679.322Q240.804 680.913 241.203 682.483Q241.603 684.054 242.095 685.597Q242.588 687.14 243.172 688.651Q243.756 690.162 244.43 691.636Q245.104 693.109 245.865 694.539C252.517 707.071 264.297 717.353 277.956 721.452Q279.202 721.816 280.464 722.118Q281.726 722.42 283.001 722.66Q284.277 722.899 285.563 723.076Q286.848 723.253 288.141 723.366Q289.434 723.479 290.731 723.529Q292.028 723.578 293.325 723.564Q294.623 723.55 295.919 723.472Q297.214 723.394 298.504 723.252Q299.794 723.11 301.076 722.906Q302.357 722.701 303.627 722.433Q304.897 722.165 306.152 721.836Q307.407 721.506 308.645 721.115Q309.882 720.724 311.099 720.272Q312.316 719.82 313.509 719.31Q314.702 718.799 315.868 718.23Q317.035 717.661 318.172 717.036C327.381 712.068 334.644 704.998 339.946 695.978C341.675 693.035 343.028 689.868 344.771 686.947C345.599 687.837 345.959 688.322 346.235 689.514C344.842 697.774 337.796 705.247 332.494 711.386C345.666 711.717 358.916 711.472 372.096 711.478L446.683 711.493L671.424 711.518C668.263 708.386 665.285 705.201 662.754 701.527C657.312 693.626 653.515 683.832 655.352 674.147C657.642 687.861 663.831 700.611 674.306 709.934C684.634 719.125 697.944 724.02 711.789 723.201Q713.107 723.118 714.42 722.969Q715.732 722.82 717.036 722.607Q718.339 722.393 719.63 722.115Q720.922 721.837 722.198 721.495Q723.473 721.153 724.731 720.748Q725.988 720.343 727.224 719.876Q728.459 719.409 729.67 718.882Q730.881 718.354 732.064 717.767Q733.247 717.179 734.4 716.534Q735.552 715.889 736.672 715.187Q737.791 714.486 738.874 713.729Q739.956 712.973 741 712.163Q742.044 711.354 743.047 710.494Q744.049 709.634 745.008 708.725Q745.966 707.816 746.878 706.861Q747.79 705.905 748.654 704.906Q749.516 703.924 750.327 702.901Q751.139 701.878 751.898 700.815Q752.658 699.753 753.364 698.654Q754.07 697.555 754.72 696.422Q755.37 695.29 755.964 694.126Q756.557 692.962 757.091 691.771Q757.626 690.579 758.1 689.362Q758.575 688.145 758.988 686.906Q759.401 685.667 759.753 684.409Q760.104 683.151 760.392 681.877Q760.68 680.603 760.905 679.317Q761.129 678.03 761.289 676.734Q761.449 675.437 761.544 674.135Q761.64 672.832 761.67 671.526Q761.701 670.221 761.666 668.915Q761.631 667.609 761.532 666.307C761.026 659.854 759.753 653.367 758.875 646.946L753.394 605.879L746.507 552.648C745.342 543.736 745.083 532.808 741.973 524.366C739.159 516.729 732.953 511.807 726.957 506.741L729.66 505.81C729.863 506.011 730.063 506.214 730.268 506.413C735.909 511.885 741.75 515.204 744.885 522.928C747.791 530.085 747.87 539.885 748.846 547.581L754.126 588.83L761.269 641.519C762.486 650.491 764.429 659.751 764.71 668.781C765.238 685.763 758.688 699.004 747.234 711.194C770.534 712.036 794.035 711.391 817.358 711.428C817.997 712.631 818.145 713.664 818.319 714.987Q780.575 714.752 742.83 715.015C735.48 719.536 728.49 723.46 719.966 725.312C703.542 728.879 689.88 724.328 676.166 715.416L433.961 715.442L363.147 715.404L341.609 715.362C337.973 715.356 334.094 715.037 330.492 715.465C324.762 716.148 319.792 719.677 314.626 722.007C310.754 723.753 306.52 725.03 302.35 725.82C286.457 728.828 271.7 723.984 258.637 715.023C251.009 715.303 243.307 715.088 235.67 715.086C229.175 714.677 222.539 714.946 216.029 714.949L177.831 714.99C169.756 715.014 161.611 715.281 153.547 714.866C152.425 714.013 152.407 712.851 152.029 711.526L254.572 711.49C248.36 705.184 243.588 698.179 240.336 689.919C237.334 682.293 235.904 675.029 236.319 666.824C236.743 658.469 238.695 650.148 240.287 641.95L246.343 610.268Q250.76 586.815 255.465 563.418C257.779 551.407 259.092 537.839 263.95 526.636Z"/>
	<path fill="#D9E5EE" d="M800.031 89.4679Q801.804 89.5585 803.574 89.684C827.392 91.3937 849.465 103.773 864.902 121.771C883.947 143.977 890.473 171.762 888.333 200.481Q844.144 200.99 799.952 200.974L800.031 89.4679Z"/>
	<path fill="#D9E5EE" d="M174.621 378.869C188.509 370.517 206.308 365.02 222.538 368.997C230.785 371.017 238.971 376.307 243.392 383.677C244.356 385.284 244.859 386.305 244.582 388.141C235.254 396.316 225.376 409.991 216.721 419.539L165.981 476.526C158.753 484.78 150.68 492.907 144.033 501.6C143.557 501.651 143.027 501.562 142.548 501.527C140.723 500.143 139.233 498.522 137.838 496.718C126.357 481.875 120.099 464.389 122.651 445.619C124.415 441.813 125.354 437.062 126.868 433.045C133.572 417.427 160.484 388.781 174.621 378.869Z"/>
	<path d="M174.621 378.869C188.509 370.517 206.308 365.02 222.538 368.997C230.785 371.017 238.971 376.307 243.392 383.677C244.356 385.284 244.859 386.305 244.582 388.141C244.38 388.038 244.175 387.94 243.975 387.831C241.104 386.261 238.173 381.295 235.666 378.913C225.545 369.303 208.385 369.91 195.818 373.09Q192.924 373.808 190.105 374.78Q187.286 375.752 184.565 376.971Q181.843 378.189 179.24 379.644Q176.637 381.099 174.174 382.779C162.656 390.764 140.923 415.047 133.647 427.25C126.087 439.929 123.258 454.045 126.959 468.489C129.252 477.438 133.666 485.584 138.669 493.285C140.343 495.86 142.981 498.775 144.033 501.6C143.557 501.651 143.027 501.562 142.548 501.527C140.723 500.143 139.233 498.522 137.838 496.718C126.357 481.875 120.099 464.389 122.651 445.619C124.415 441.813 125.354 437.062 126.868 433.045C133.572 417.427 160.484 388.781 174.621 378.869Z"/>
	<path fill="#D9E5EE" d="M789.302 89.2187C790.438 89.1232 790.309 88.9875 791.383 89.6223C792.37 93.4255 791.556 109.459 791.59 114.647L792.04 200.548Q747.708 200.762 703.375 200.504L701.28 200.422C700.502 199.619 700.379 198.786 700.291 197.706C700.072 195.031 700.517 192.163 700.486 189.448C700.42 183.651 700.232 177.846 700.888 172.073C702.878 154.558 710.97 135.74 722.56 122.435C740.158 102.231 762.637 90.9959 789.302 89.2187Z"/>
	<path d="M45.1418 711.578C55.8437 711.041 66.7848 711.497 77.5125 711.498L141.288 711.518C141.556 712.677 141.811 713.825 142.155 714.965C111.247 715.084 79.1998 714.421 48.4542 715.286L48.419 804.324C48.323 832.815 47.9131 861.403 48.4882 889.885L191.712 889.945C215.157 889.948 238.729 889.45 262.162 889.997C285.612 889.38 309.213 889.909 332.677 889.881C342.314 889.869 352.076 890.145 361.694 889.585C391.133 889.993 420.625 889.66 450.072 889.692C467.732 889.711 485.584 890.395 503.222 889.885L548.016 889.844C557.144 889.829 566.397 890.104 575.509 889.585C611.146 890.056 646.838 889.599 682.481 889.616C706.91 889.628 731.638 890.454 756.039 889.553L758.951 889.797C767.593 890.588 776.725 889.992 785.43 889.989C797.048 889.985 808.864 890.431 820.459 889.885C829.991 889.16 839.848 889.646 849.428 889.645L902.852 889.637L939.114 889.568C945.182 889.558 952.57 888.782 958.465 890.005C960.13 872.85 960.226 855.409 960.783 838.187Q962.397 792.3 963.017 746.389C956.53 746.413 950 746.575 943.52 746.286C946.861 737.011 952.839 725.554 956.806 716.013C967.385 716.039 978.501 716.747 988.997 715.723C982.687 714.492 961.19 717.26 957.403 714.992C957.598 713.681 957.825 713.446 958.656 712.389L992.501 712.345L992.551 816.789Q992.834 855.142 992.632 893.496C979.722 894.348 966.492 893.864 953.548 893.888L881.736 893.843L669.75 893.61L44.9848 893.781L44.9793 775.465L44.8516 736.749C44.8187 728.392 44.5183 719.912 45.1418 711.578Z"/>
	<path fill="#FEFEFE" d="M956.806 716.013C967.385 716.039 978.501 716.747 988.997 715.723L989.057 824.529C989.138 846.302 989.686 868.171 989.234 889.934Q973.85 890.067 958.465 890.005C960.13 872.85 960.226 855.409 960.783 838.187Q962.397 792.3 963.017 746.389C956.53 746.413 950 746.575 943.52 746.286C946.861 737.011 952.839 725.554 956.806 716.013Z"/>
	<path fill="#D9E5EE" d="M858.922 208.771C868.78 208.432 878.669 208.534 888.534 208.493L888.538 345.009L829.628 344.69C819.729 344.654 809.816 344.851 799.917 344.946L800.016 208.986Q829.47 209.157 858.922 208.771Z"/>
	<path fill="#D9E5EE" d="M788.781 208.742C789.812 208.656 790.507 208.675 791.503 208.961C792.209 210.301 791.894 333.031 791.968 345.215Q748.591 344.748 705.213 345.032C703.986 345.138 702.979 345.186 701.749 345.009C700.892 344.128 700.503 343.484 700.433 342.21C700.236 338.636 700.583 334.769 700.569 331.154L700.503 300.768L700.384 209.087L788.781 208.742Z"/>
	<path fill="#FEFEFE" d="M699.996 495.267C708.208 495.601 714.624 498.716 721.477 503.059C723.259 504.188 725.104 505.805 726.957 506.741C732.953 511.807 739.159 516.729 741.973 524.366C745.083 532.808 745.342 543.736 746.507 552.648L753.394 605.879L758.875 646.946C759.753 653.367 761.026 659.854 761.532 666.307Q761.631 667.609 761.666 668.915Q761.701 670.221 761.67 671.526Q761.64 672.832 761.544 674.135Q761.449 675.437 761.289 676.734Q761.129 678.03 760.904 679.317Q760.68 680.603 760.392 681.877Q760.104 683.151 759.753 684.409Q759.401 685.667 758.988 686.906Q758.575 688.145 758.1 689.362Q757.626 690.579 757.091 691.771Q756.557 692.962 755.964 694.126Q755.37 695.289 754.72 696.422Q754.07 697.555 753.364 698.654Q752.658 699.753 751.898 700.815Q751.139 701.878 750.327 702.901Q749.516 703.924 748.654 704.906Q747.79 705.905 746.878 706.861Q745.966 707.816 745.008 708.725Q744.049 709.634 743.047 710.494Q742.044 711.354 741 712.164Q739.956 712.973 738.874 713.729Q737.791 714.486 736.672 715.187Q735.553 715.889 734.4 716.534Q733.247 717.179 732.064 717.767Q730.881 718.354 729.67 718.882Q728.459 719.409 727.224 719.876Q725.988 720.343 724.731 720.748Q723.473 721.153 722.198 721.495Q720.922 721.837 719.63 722.115Q718.339 722.393 717.036 722.607Q715.732 722.82 714.42 722.969Q713.107 723.118 711.789 723.201C697.944 724.02 684.634 719.125 674.306 709.934C663.831 700.611 657.642 687.861 655.352 674.147C656.056 668.136 655.504 661.443 655.527 655.364C669.373 653.879 683.969 651.956 697.544 648.945C697.746 643.22 698.268 605.611 697.046 602.832C696.534 603.141 696.064 603.425 695.492 603.611C691.854 604.789 687.975 603.903 684.637 602.26C679.454 599.707 676.121 596.09 674.205 590.689C672.781 586.672 670.131 584.407 668.06 580.828C664.808 575.209 666.146 567.861 667.669 561.926C665.515 559.539 663.633 557.342 662.533 554.247C661.813 552.223 661.52 550.09 661.565 547.944C661.645 544.174 662.812 540.4 663.201 536.642C663.503 533.723 663.111 530.712 663.577 527.824C663.747 526.767 664.051 525.678 664.531 524.719C665.2 523.38 666.221 522.109 667.65 521.583C668.734 519.536 669.861 517.599 671.244 515.738C678.717 505.679 687.189 497.164 699.996 495.267Z"/>
	<path d="M667.65 521.583C666.516 524.699 664.903 528.438 665.35 531.791L666.024 532.647C671.825 533.168 693.48 511.829 698.156 514.392C698.294 515.085 698.623 515.529 698.135 516.122C695.221 519.668 671.533 532.583 665.523 537.909C663.936 543.75 662.618 551.282 665.8 556.823C666.566 558.158 667.017 558.636 668.477 559.077C676.37 557.728 689.075 543.681 697.2 543.221L697.965 543.853C697.62 545.421 696.907 545.838 695.574 546.687C687.213 552.011 678.731 557.025 670.453 562.501C667.967 567.212 667.217 572.258 668.894 577.393C669.903 580.48 671.523 582.754 673.819 584.997C679.615 581.976 692.517 573.258 697.964 572.493L698.523 573.069C697.924 574.517 697.158 575.656 695.873 576.6C691.705 579.666 680.636 584.476 675.139 587.65C676.952 593.109 679.699 597.138 685.054 599.724C688.878 601.57 692.897 602.16 697.046 602.832C696.534 603.141 696.064 603.425 695.492 603.611C691.854 604.789 687.975 603.903 684.637 602.26C679.454 599.707 676.121 596.09 674.205 590.689C672.781 586.672 670.131 584.407 668.06 580.828C664.808 575.209 666.146 567.861 667.669 561.926C665.515 559.539 663.633 557.342 662.533 554.247C661.813 552.223 661.52 550.09 661.565 547.944C661.645 544.174 662.812 540.4 663.201 536.642C663.503 533.723 663.111 530.712 663.577 527.824C663.747 526.767 664.051 525.678 664.531 524.719C665.2 523.38 666.221 522.109 667.65 521.583Z"/>
	<path fill="#FEFEFE" d="M304.219 494.713C313.104 493.846 319.538 495.775 326.403 501.437C334.848 508.403 339.962 517.671 344.279 527.548C347.848 530.744 348.998 536.974 349.276 541.615C349.68 548.379 348.395 558.299 343.832 563.54C344.707 570.569 345.725 578.275 341.04 584.291C339.653 586.073 337.731 587.457 335.804 588.608C334.638 592 333.186 596.693 329.87 598.57C329.372 598.852 329.294 598.792 328.728 598.832C325.463 601.448 322.05 604.431 317.573 603.957C316.834 603.879 316.209 603.648 315.536 603.351C313.545 613.245 312.047 623.253 310.46 633.22C309.531 639.05 308.811 645.135 307.224 650.826C320.899 652.845 334.661 655.311 348.398 656.802C347.786 666.122 348.246 678.336 344.771 686.947C343.028 689.868 341.675 693.035 339.946 695.978C334.644 704.998 327.381 712.068 318.172 717.036Q317.035 717.661 315.868 718.23Q314.702 718.799 313.509 719.31Q312.316 719.821 311.099 720.272Q309.882 720.724 308.645 721.115Q307.407 721.506 306.152 721.836Q304.897 722.165 303.627 722.433Q302.357 722.701 301.076 722.906Q299.794 723.11 298.504 723.252Q297.214 723.394 295.919 723.472Q294.623 723.55 293.325 723.564Q292.028 723.578 290.731 723.529Q289.434 723.479 288.141 723.366Q286.848 723.253 285.563 723.076Q284.277 722.899 283.001 722.66Q281.726 722.42 280.464 722.118Q279.202 721.816 277.956 721.452C264.297 717.353 252.517 707.071 245.865 694.539Q245.104 693.109 244.43 691.636Q243.756 690.162 243.172 688.651Q242.588 687.14 242.095 685.597Q241.603 684.054 241.203 682.483Q240.804 680.913 240.5 679.322Q240.196 677.731 239.988 676.124Q239.78 674.518 239.669 672.901Q239.558 671.285 239.544 669.665C239.553 660.164 242 650.346 243.747 641.032L252.199 596.938L259.971 556.713C261.604 548.348 262.9 539.586 265.491 531.471C270.09 517.064 282.651 504.021 295.962 497.254C298.642 496.741 301.559 495.488 304.219 494.713Z"/>
	<path d="M307.224 650.826C306.295 656.613 305.729 663.019 303.51 668.452L301.777 668.102C300.703 664.185 310.807 608.941 312.701 602.579C313.923 602.203 314.437 602.798 315.536 603.351C313.545 613.245 312.047 623.253 310.46 633.22C309.531 639.05 308.811 645.135 307.224 650.826Z"/>
	<path d="M346.34 539.304C339.879 532.782 325.735 524.98 317.76 519.404C315.68 517.95 311.68 515.701 311.233 513.189L312.176 512.821C313.928 513.205 315.313 513.765 316.879 514.648C320.559 516.722 323.956 519.781 327.429 522.233C333.521 526.534 339.818 530.538 345.914 534.839C345.29 532.426 344.793 529.987 344.279 527.548C347.848 530.744 348.998 536.974 349.276 541.615C349.68 548.379 348.395 558.299 343.832 563.54C344.707 570.569 345.725 578.275 341.04 584.291C339.653 586.073 337.731 587.457 335.804 588.608C334.638 592 333.186 596.693 329.87 598.57C329.372 598.852 329.294 598.792 328.728 598.832C331.066 596.072 332.52 592.968 333.938 589.679C328.469 586.665 315.553 578.936 311.301 574.912C310.323 573.986 309.779 573.097 309.352 571.835C312.078 569.046 328.753 586.63 335.629 585.185C337.631 584.765 339.1 583.1 340.122 581.443C343.509 575.95 342.8 571.312 341.489 565.354C335.47 560.239 313.595 547.251 311.106 541.839L311.641 541.449C322.898 545.07 331.22 556.108 341.527 561.349C342.785 561.201 342.987 561.222 343.772 560.108C347.007 555.526 347.157 544.703 346.34 539.304Z"/>
	<path fill="#E16349" d="M822.611 746.136C839.215 745.692 855.884 745.989 872.496 746L876.245 746.067L904.992 746.058C910.433 746.06 916.094 745.78 921.502 746.314C922.807 746.325 924.166 746.419 925.464 746.309C931.412 745.992 937.579 745.774 943.52 746.286C950 746.575 956.53 746.413 963.017 746.389Q962.397 792.3 960.783 838.187C960.226 855.409 960.13 872.85 958.465 890.005C952.57 888.782 945.182 889.558 939.114 889.568L902.852 889.637L849.428 889.645C839.848 889.646 829.991 889.16 820.459 889.885Q819.123 841.982 816.619 794.127C815.919 778.377 814.718 762.45 814.734 746.695C817.375 746.62 820.007 746.625 822.611 746.136Z"/>
	<path fill="#3A7569" d="M818.874 515.888C824.663 500.929 831.884 486.31 847.34 479.429C857.081 475.092 869.719 474.759 879.66 478.621C892.763 483.71 901.263 495.328 906.697 507.847C917.478 532.68 917.812 567.055 918.406 593.84C930.767 589.856 946.102 586.396 958.287 592.814C966.499 597.14 971.294 604.691 973.834 613.407C980.226 635.351 973.639 666.783 966.77 688.383C964.258 696.284 960.501 704.36 958.656 712.389C957.825 713.446 957.598 713.681 957.403 714.992C961.19 717.26 982.687 714.492 988.997 715.723C978.501 716.747 967.385 716.039 956.806 716.013C952.839 725.554 946.861 737.011 943.52 746.286C937.579 745.774 931.412 745.992 925.464 746.309C924.166 746.419 922.807 746.325 921.502 746.314C916.094 745.78 910.433 746.06 904.992 746.058L876.245 746.067L872.496 746C855.884 745.989 839.215 745.692 822.611 746.136C821.947 735.544 820.673 725.353 818.319 714.987C818.145 713.664 817.997 712.631 817.358 711.428C817.058 709.489 816.118 707.346 815.48 705.459C810.753 691.484 802.43 680.514 795.156 667.955C788.17 655.894 782.155 641.963 779.799 628.211C777.715 616.049 778.623 600.999 786.027 590.64C792.795 581.17 803.185 577.7 814.194 575.814C813.898 556.611 814.416 538.518 817.759 519.542L818.874 515.888Z"/>
	<path d="M926.659 667.049C923.472 663.471 895.256 629.593 895.102 629.06C894.996 628.691 895.101 628.291 895.1 627.906L895.772 626.939C897.183 626.808 897.724 627.05 898.84 627.951C902.932 631.254 906.414 636.795 909.765 640.886C916.09 648.607 922.476 656.336 929.248 663.67C932.049 660.953 960.729 632.398 961.796 631.981C962.23 631.811 962.72 631.861 963.182 631.802L963.487 632.202L963.657 631.887L964.708 632.55C964.885 634.139 964.496 634.984 963.487 636.23C960.729 639.635 956.692 642.445 953.478 645.47C945.825 652.676 938.319 660.044 930.598 667.178C928.389 693.487 927.114 719.957 925.464 746.309C924.166 746.419 922.807 746.325 921.502 746.314L926.659 667.049Z"/>
	<path fill="#3A7569" d="M901.372 513.638C902.443 514.775 903.612 515.899 904.607 517.099C891.257 532.085 878.626 547.631 865.561 562.848C867.687 586.868 868.505 611.096 869.78 635.176L876.245 746.067L872.496 746C855.884 745.989 839.215 745.692 822.611 746.136C821.947 735.544 820.673 725.353 818.319 714.987C818.145 713.664 817.997 712.631 817.358 711.428C817.058 709.489 816.118 707.346 815.48 705.459C810.753 691.484 802.43 680.514 795.156 667.955C788.17 655.894 782.155 641.963 779.799 628.211C777.715 616.049 778.623 600.999 786.027 590.64C792.795 581.17 803.185 577.7 814.194 575.814C813.898 556.611 814.416 538.518 817.759 519.542L818.874 515.888C826.048 520.5 832.415 528.07 838.401 534.128Q850.856 546.581 863.013 559.325C876.207 544.702 889.688 529.498 901.372 513.638Z"/>
	<path d="M901.372 513.638C902.443 514.775 903.612 515.899 904.607 517.099C891.257 532.085 878.626 547.631 865.561 562.848C867.687 586.868 868.505 611.096 869.78 635.176L876.245 746.067L872.496 746C871.323 732.298 870.837 718.484 870.091 704.75C869.226 688.835 868.127 672.914 867.454 656.991C851.899 647.698 836.949 637.124 821.616 627.434C819.959 626.388 806.328 618.096 805.957 617.597C805.773 617.349 805.687 617.042 805.552 616.765C805.876 615.531 806.017 614.942 807.016 614.115C811.383 615.49 816.547 619.834 820.493 622.32Q844.055 636.931 867.001 652.491C866.49 637.697 865.356 622.885 864.467 608.106C863.568 593.177 862.923 578.141 861.367 563.27C853.663 554.866 845.473 546.897 837.444 538.804C830.993 532.301 824.705 525.522 817.759 519.542L818.874 515.888C826.048 520.5 832.415 528.07 838.401 534.128Q850.856 546.581 863.013 559.325C876.207 544.702 889.688 529.498 901.372 513.638Z"/>
	<path fill="#FEFEFE" d="M742.83 715.015Q780.574 714.752 818.319 714.987C820.673 725.353 821.947 735.544 822.611 746.136C820.007 746.625 817.375 746.62 814.734 746.695C814.718 762.45 815.919 778.377 816.619 794.127Q819.124 841.983 820.459 889.885C808.864 890.431 797.048 889.985 785.43 889.989C776.725 889.992 767.593 890.588 758.951 889.797L756.039 889.553C731.638 890.454 706.91 889.628 682.481 889.616C646.838 889.599 611.146 890.056 575.509 889.585C566.397 890.104 557.144 889.829 548.016 889.844L503.222 889.885C485.584 890.395 467.732 889.711 450.072 889.692C420.625 889.66 391.133 889.993 361.694 889.585C352.076 890.145 342.314 889.869 332.677 889.881C309.213 889.909 285.612 889.38 262.162 889.997C238.729 889.45 215.157 889.948 191.712 889.945L48.4882 889.885C47.9131 861.403 48.323 832.815 48.419 804.324L48.4542 715.286C79.1998 714.421 111.247 715.084 142.155 714.965C145.279 719.871 155.751 743.877 156.869 748.926C160.265 748.907 163.652 748.665 167.04 748.457C165.074 747.286 155.281 720.038 153.499 715.413C180.632 714.873 208.69 716.736 235.67 715.086C243.307 715.088 251.009 715.303 258.637 715.023C271.7 723.984 286.457 728.828 302.35 725.82C306.52 725.03 310.754 723.753 314.626 722.007C319.792 719.677 324.762 716.148 330.492 715.465C334.094 715.037 337.973 715.356 341.609 715.362L363.147 715.404L433.961 715.442L676.166 715.416C689.88 724.328 703.542 728.879 719.966 725.312C728.49 723.46 735.48 719.536 742.83 715.015Z"/>
	<path fill="#A5C1DC" d="M313.594 799.761C337.072 802.775 359.655 802.299 383.122 799.17C412.148 795.299 439.859 786.666 469.427 792.696C491.964 797.292 499.381 804.988 511.545 823.464C514.981 818.676 518.478 814.267 522.955 810.405C557.069 780.976 608.7 794.356 649.135 798.125C670.166 800.085 691.203 800.782 712.234 802.424C715.562 807.604 718.275 813.23 721.248 818.626Q729.741 833.716 737.901 848.99C743.291 858.919 756.687 879.907 758.951 889.797L756.039 889.553C753.027 879.64 742.946 864.327 737.576 854.783Q723.886 830.258 710.588 805.52C703.833 804.724 696.813 804.894 690.001 804.515Q670.585 803.483 651.237 801.553Q636.475 800.199 621.784 798.222C608.641 796.473 595.137 794.303 581.852 794.545C561.069 794.923 535.764 800.366 520.866 816.01C518.123 818.89 515.225 822.655 514.198 826.537C511.809 835.564 513.014 877.722 513.276 889.38L552.714 889.34C560.247 889.333 568.004 888.973 575.509 889.585C566.397 890.104 557.144 889.829 548.016 889.844L503.222 889.885C505.686 889.282 508.374 889.426 510.903 889.369C510.991 878.966 510.592 868.563 510.628 858.16C510.656 850.209 511.862 838.161 510.288 830.738C509.074 825.008 505.331 819.057 501.759 814.514C473.665 778.776 415.969 798.033 378.365 802.357C357.126 804.799 336.224 805.279 314.968 802.762L283.26 859.149C277.691 868.998 270.829 878.903 266.751 889.463L328.592 889.36C339.544 889.347 350.791 888.761 361.694 889.585C352.076 890.145 342.314 889.869 332.677 889.881C309.213 889.909 285.612 889.38 262.162 889.997C262.621 889.734 263.146 889.563 263.539 889.209C264.548 888.3 266.006 884.004 266.712 882.628C269.714 876.772 273.083 871.119 276.399 865.438Q290.999 840.463 304.764 815.018C307.59 809.872 310.942 804.99 313.594 799.761Z"/>
	<path fill="#3A7569" d="M167.04 748.457C192.163 748.316 219.246 758.011 237.171 775.873C246.137 784.808 252.42 795.853 256.002 807.97L68.0271 807.672C74.1356 787.632 88.9805 770.427 107.468 760.652C122.585 752.659 139.821 748.879 156.869 748.926C160.265 748.907 163.652 748.665 167.04 748.457Z"/>
	<path fill="#FEFEFE" d="M513.276 889.38C513.014 877.722 511.809 835.564 514.198 826.537C515.225 822.655 518.123 818.89 520.866 816.01C535.764 800.366 561.069 794.923 581.852 794.545C595.137 794.303 608.641 796.473 621.784 798.222Q636.475 800.199 651.237 801.553Q670.585 803.483 690.001 804.515C696.813 804.894 703.833 804.724 710.588 805.52Q723.886 830.258 737.576 854.783C742.946 864.327 753.027 879.64 756.039 889.553C731.638 890.454 706.91 889.628 682.481 889.616C646.838 889.599 611.146 890.056 575.509 889.585C568.004 888.973 560.247 889.333 552.714 889.34L513.276 889.38Z"/>
	<path fill="#A5C1DC" d="M575.8 859.703C577.796 859.47 580.08 859.25 581.855 860.359C581.093 862.504 576.253 862.161 574.306 862.28C561.056 863.086 548.821 866.332 538.197 874.548C536.95 875.606 535.631 877.055 533.944 877.213L533.614 876.512C533.878 875.936 534.116 875.423 534.509 874.92C543.009 864.062 562.978 860.745 575.8 859.703Z"/>
	<path fill="#A5C1DC" d="M573.826 814.705C576.584 814.491 580.801 813.999 583.41 814.954L583.752 816.059C581.483 817.843 574.45 817.384 571.393 817.636Q567.723 817.954 564.083 818.524Q560.443 819.094 556.851 819.913Q553.259 820.732 549.732 821.796Q546.205 822.861 542.759 824.165C540.622 825.003 537.337 826.953 535.088 826.804L534.694 825.987L535.122 824.96C542.504 818.183 563.935 815.496 573.826 814.705Z"/>
	<path fill="#A5C1DC" d="M703.911 841.217C704.907 841.16 704.428 841.058 705.34 841.559L705.614 843.305C702.894 844.625 698.443 844.656 695.423 845.01C675.655 847.327 656.811 846.721 637.113 844.231C636.094 843.86 635.535 843.238 634.772 842.489C637.879 840.401 652.738 843.422 657.463 843.64C673.185 844.365 688.314 842.865 703.911 841.217Z"/>
	<path fill="#A5C1DC" d="M577.487 836.709C583.79 836.335 606.181 836.489 610.825 839.436L610.998 840.328C608.416 841.927 598.078 839.977 594.804 839.731C583.932 838.915 573.68 839.209 562.874 840.636C557.944 841.472 553.15 842.694 548.538 844.659C544.6 846.337 540.466 849.086 536.223 849.758L535.967 849.182C536.06 849.075 536.152 848.967 536.247 848.861C545.227 838.943 564.95 837.55 577.487 836.709Z"/>
	<path fill="#A5C1DC" d="M604.398 815.975C624.899 818.58 645.963 821.29 666.652 821.281C670.766 821.279 692.2 819.573 693.633 820.143C694.372 820.437 694.421 821.099 694.718 821.775Q692.606 822.206 690.46 822.411Q678.755 823.598 666.991 823.701C658.692 823.743 608.573 821.747 604.618 818.489L604.398 815.975Z"/>
	<path fill="#A5C1DC" d="M600.866 860.87C608.635 861.161 616.591 862.756 624.304 863.761C635.946 865.278 647.874 866.361 659.617 866.548Q677.741 866.82 695.767 864.921C701.892 864.328 708.269 862.992 714.41 863.031L715.091 863.745L714.889 865.314C683.588 872.282 645.649 869.667 614.096 865.38C610.733 864.923 603.796 865.189 601.133 863.531L600.866 860.87Z"/>
	<path fill="#FEFEFE" d="M314.968 802.762C336.224 805.279 357.126 804.799 378.365 802.357C415.969 798.033 473.665 778.776 501.759 814.514C505.331 819.057 509.074 825.008 510.288 830.738C511.862 838.161 510.656 850.209 510.628 858.16C510.592 868.563 510.991 878.966 510.903 889.369C508.374 889.426 505.686 889.282 503.222 889.885C485.584 890.395 467.732 889.711 450.072 889.692C420.625 889.66 391.133 889.993 361.694 889.585C350.791 888.761 339.544 889.347 328.592 889.36L266.751 889.463C270.829 878.903 277.691 868.998 283.26 859.149L314.968 802.762Z"/>
	<path fill="#A5C1DC" d="M442.846 860.125C443.464 860.059 444.066 860 444.687 859.977C458.573 859.455 479.709 863.22 490.022 873.272C491.696 874.904 492.553 876.092 492.612 878.451C490.126 877.92 483.482 872.385 480.669 870.72Q475.407 867.596 469.621 865.602C466.875 864.673 463.904 863.831 461.035 863.407C456.265 862.702 446.998 863.55 443.179 861.595L442.846 860.125Z"/>
	<path fill="#A5C1DC" d="M444.201 813.225C451.753 813.155 459.552 813.669 466.923 815.33C474.022 816.93 485.772 820.534 489.859 826.987L489.474 827.304C486.492 826.803 483.839 825.05 481.205 823.625C473.916 819.371 465.16 817.203 456.832 816.324C451.914 815.805 446.635 815.64 441.689 815.881C439.351 815.995 436.923 816.482 434.593 816.398C433.448 816.357 433.038 816.206 432.108 815.612L432.426 814.86C435.552 812.71 440.487 813.282 444.201 813.225Z"/>
	<path fill="#A5C1DC" d="M393.92 840.184L395.203 840.109L396.088 840.987L396.023 841.918C392.993 843.979 386.841 843.978 383.176 844.358C362.142 846.541 342.509 846.249 321.608 843.125C320.7 842.95 320.353 842.815 319.578 842.381L319.405 841.481C322.048 839.4 332.379 841.986 336.108 842.406C355.415 844.584 374.796 843.204 393.92 840.184Z"/>
	<path fill="#A5C1DC" d="M431.31 836.705C446.995 834.93 466.854 836.996 481.194 843.517C484.203 844.886 488.881 846.937 490.124 850.219C487.196 850.899 481.48 847.061 478.629 845.684C463.361 838.415 446.024 838.227 429.47 839.543C425.229 839.88 421 840.727 416.754 840.806L416.046 839.712L416.353 838.968C419.628 836.702 427.304 837.007 431.31 836.705Z"/>
	<path fill="#A5C1DC" d="M409.686 816.172C411.302 815.87 412.394 815.816 413.788 816.734L413.422 817.488C408.5 819.984 402.03 820.071 396.618 820.799C390.134 821.67 383.74 822.834 377.212 823.427C362.333 824.78 347.173 824.09 332.365 822.318C330.83 822.121 329.494 821.904 328.042 821.36L327.604 820.394C330.305 818.366 342.596 821.147 346.675 821.515C367.78 823.421 388.924 819.375 409.686 816.172Z"/>
	<path fill="#A5C1DC" d="M309.897 860.39C330.546 866.349 369.22 867.121 390.552 865.249C395.972 864.774 401.429 864.237 406.812 863.451C411.339 862.79 416.04 861.694 420.611 861.596L421.167 862.247L420.906 864.029C396.36 869.08 370.322 869.517 345.403 867.965C336.127 867.387 327.312 865.902 318.146 864.63C316.1 864.347 313.85 864.474 311.862 863.937C310.746 863.636 310.441 863.354 309.709 862.526L309.897 860.39Z"/>
	<path fill="#668CC3" d="M431.342 261.716C433.515 243.695 442.229 226.874 456.53 215.523Q457.849 214.459 459.22 213.463Q460.591 212.467 462.01 211.541Q463.43 210.615 464.893 209.761Q466.357 208.907 467.862 208.127Q469.367 207.348 470.909 206.644Q472.451 205.941 474.026 205.316Q475.601 204.691 477.206 204.146Q478.81 203.601 480.44 203.136Q482.07 202.672 483.721 202.29Q485.372 201.908 487.04 201.609Q488.708 201.31 490.389 201.096Q492.07 200.881 493.76 200.75Q495.449 200.62 497.143 200.575Q498.838 200.529 500.532 200.568Q502.226 200.608 503.916 200.732Q505.606 200.856 507.288 201.065C524.847 203.135 541.326 213.121 552.106 227.061Q553.545 228.916 554.856 230.863Q556.168 232.81 557.345 234.841Q558.523 236.871 559.561 238.977Q560.599 241.082 561.494 243.252Q562.388 245.423 563.135 247.648Q563.882 249.874 564.477 252.144Q565.073 254.415 565.515 256.72Q565.956 259.026 566.242 261.356C573.587 263.362 580.471 265.972 584.408 273.047Q584.662 273.512 584.892 273.989Q585.122 274.467 585.327 274.955Q585.533 275.444 585.713 275.942Q585.893 276.44 586.048 276.947Q586.203 277.454 586.331 277.968Q586.46 278.482 586.562 279.002Q586.665 279.521 586.741 280.046Q586.817 280.57 586.866 281.098Q586.915 281.626 586.937 282.155Q586.959 282.684 586.954 283.214Q586.949 283.744 586.917 284.273Q586.886 284.802 586.827 285.329Q586.768 285.855 586.683 286.378Q586.598 286.901 586.486 287.419Q586.374 287.937 586.236 288.449Q586.098 288.96 585.934 289.464C583.962 295.6 579.304 300.466 573.552 303.238C570.903 304.514 568.045 305.22 565.197 305.902C564.597 313.343 563.651 320.951 563.518 328.41C597.636 316.275 627.353 310.461 661.77 326.865C672.014 331.748 684.676 338.845 691.845 347.844C694.277 347.256 696.684 346.788 699.151 346.376C699.249 381.238 698.863 416.183 699.577 451.032C712.31 456.782 721.705 469.092 726.509 481.963C729.035 488.731 731.322 498.648 729.66 505.81L726.957 506.741C725.104 505.805 723.259 504.188 721.477 503.059C714.624 498.716 708.208 495.601 699.996 495.267C687.189 497.164 678.717 505.679 671.244 515.738C669.861 517.599 668.734 519.536 667.65 521.583C666.221 522.109 665.2 523.38 664.531 524.719C664.051 525.678 663.747 526.767 663.577 527.824C663.111 530.712 663.503 533.723 663.201 536.642C662.812 540.4 661.645 544.174 661.565 547.944C661.52 550.09 661.813 552.223 662.533 554.247C663.633 557.342 665.515 559.539 667.669 561.926C666.146 567.861 664.808 575.209 668.06 580.828C670.131 584.407 672.781 586.672 674.205 590.689C676.121 596.09 679.454 599.707 684.637 602.26C687.975 603.903 691.854 604.789 695.492 603.611C696.064 603.425 696.534 603.141 697.046 602.832C698.268 605.611 697.746 643.22 697.544 648.945C683.969 651.956 669.373 653.879 655.527 655.364C655.504 661.443 656.056 668.136 655.352 674.147C653.515 683.832 657.312 693.626 662.754 701.527C665.285 705.201 668.263 708.386 671.424 711.518L446.683 711.493L372.096 711.478C358.916 711.472 345.666 711.717 332.494 711.386C337.796 705.247 344.842 697.774 346.235 689.514C345.959 688.322 345.599 687.837 344.771 686.947C348.246 678.336 347.786 666.122 348.398 656.802C334.661 655.311 320.899 652.845 307.224 650.826C308.811 645.135 309.531 639.05 310.46 633.22C312.047 623.253 313.545 613.245 315.536 603.351C316.209 603.648 316.834 603.879 317.573 603.957C322.05 604.431 325.463 601.448 328.728 598.832C329.294 598.792 329.372 598.852 329.87 598.57C333.186 596.693 334.638 592 335.804 588.608C337.731 587.457 339.653 586.073 341.04 584.291C345.725 578.275 344.707 570.569 343.832 563.54C348.395 558.299 349.68 548.379 349.276 541.615C348.998 536.974 347.848 530.744 344.279 527.548C339.962 517.671 334.848 508.403 326.403 501.437C319.538 495.775 313.104 493.846 304.219 494.713C301.559 495.488 298.642 496.741 295.962 497.254C289.764 497.329 281.775 504.936 277.693 509.107C272.553 514.358 267.81 520.379 263.95 526.636C262.017 516.106 264.071 500.541 267.3 490.314Q267.845 488.544 268.475 486.804Q269.105 485.063 269.82 483.355Q270.535 481.647 271.332 479.976Q272.129 478.305 273.007 476.675Q273.885 475.045 274.842 473.459Q275.798 471.874 276.831 470.337Q277.864 468.801 278.971 467.316Q280.077 465.832 281.255 464.404Q282.433 462.975 283.679 461.606Q284.926 460.237 286.237 458.93Q287.549 457.623 288.923 456.382Q290.297 455.141 291.729 453.968Q293.162 452.796 294.651 451.695Q296.139 450.593 297.68 449.566Q299.22 448.539 300.809 447.589Q302.398 446.638 304.031 445.766C303.359 429.895 303.881 413.792 303.862 397.894C303.842 381.549 303.315 365.127 303.639 348.796C304.314 347.619 304.836 347.499 306.013 346.873C330.649 327.057 363.185 313.749 395.224 317.198C408.524 318.63 420.43 322.832 433.236 326.175C433.305 319.312 432.748 312.461 432.309 305.616C425.742 305.16 420.057 302.602 415.705 297.513C411.928 293.096 409.957 287.438 410.479 281.622Q410.53 281.074 410.61 280.53Q410.689 279.986 410.796 279.447Q410.903 278.907 411.037 278.374Q411.172 277.84 411.333 277.315Q411.494 276.789 411.682 276.272Q411.87 275.755 412.084 275.249Q412.299 274.742 412.538 274.247Q412.778 273.752 413.042 273.27Q413.307 272.788 413.596 272.32Q413.884 271.852 414.197 271.399Q414.509 270.946 414.844 270.51Q415.179 270.074 415.536 269.655Q415.893 269.237 416.27 268.837Q416.648 268.437 417.045 268.057Q417.443 267.677 417.859 267.318Q418.276 266.959 418.71 266.621C422.558 263.61 426.641 262.492 431.342 261.716Z"/>
	<path d="M431.342 261.716C433.515 243.695 442.229 226.874 456.53 215.523Q457.849 214.459 459.22 213.463Q460.591 212.467 462.01 211.541Q463.43 210.615 464.893 209.761Q466.357 208.907 467.862 208.127Q469.367 207.348 470.909 206.644Q472.451 205.941 474.026 205.316Q475.601 204.691 477.206 204.146Q478.81 203.601 480.44 203.136Q482.07 202.672 483.721 202.29Q485.372 201.908 487.04 201.609Q488.708 201.31 490.389 201.096Q492.07 200.881 493.76 200.75Q495.449 200.62 497.143 200.575Q498.838 200.529 500.532 200.568Q502.226 200.608 503.916 200.732Q505.606 200.856 507.288 201.065C524.847 203.135 541.326 213.121 552.106 227.061Q553.545 228.916 554.856 230.863Q556.168 232.81 557.345 234.841Q558.523 236.871 559.561 238.977Q560.599 241.082 561.494 243.252Q562.388 245.423 563.135 247.648Q563.882 249.874 564.477 252.144Q565.073 254.415 565.515 256.72Q565.956 259.026 566.242 261.356C573.587 263.362 580.471 265.972 584.408 273.047Q584.662 273.512 584.892 273.989Q585.122 274.467 585.327 274.955Q585.533 275.444 585.713 275.942Q585.893 276.44 586.048 276.947Q586.203 277.454 586.331 277.968Q586.46 278.482 586.562 279.002Q586.665 279.521 586.741 280.046Q586.817 280.57 586.866 281.098Q586.915 281.626 586.937 282.155Q586.959 282.684 586.954 283.214Q586.949 283.744 586.917 284.273Q586.886 284.802 586.827 285.329Q586.768 285.855 586.683 286.378Q586.598 286.901 586.486 287.419Q586.374 287.937 586.236 288.449Q586.098 288.96 585.934 289.464C583.962 295.6 579.304 300.466 573.552 303.238C570.903 304.514 568.045 305.22 565.197 305.902C564.597 313.343 563.651 320.951 563.518 328.41C597.636 316.275 627.353 310.461 661.77 326.865C672.014 331.748 684.676 338.845 691.845 347.844C690.394 348.086 689.506 348.051 688.062 347.766C683.257 349.181 677.951 349.731 672.999 350.536Q658.52 352.853 644.015 355.006Q600.075 361.741 556.276 369.347C542.939 371.615 529.041 372.828 515.954 376.272C516.285 376.978 516.473 377.575 516.501 378.361C516.966 391.733 516.463 405.285 516.466 418.676L516.506 501.718L516.58 612.689Q516.79 646.308 516.6 679.928C516.19 680.361 515.838 680.53 515.317 680.806L514.075 679.861C504.047 681.899 497.875 682.468 487.908 679.294L486.531 680.731C485.462 680.499 485.861 680.729 485.244 680.229C484.188 670.157 485.123 659.259 485.13 649.108L485.075 584.028L485.054 377.432C468.89 373.889 452.658 371.376 436.381 368.498Q394.65 361.042 352.833 354.08C343.36 352.499 333.892 350.848 324.401 349.379C319.755 348.66 314.995 348.326 310.405 347.322C308.611 347.843 307.638 347.654 306.013 346.873C330.649 327.057 363.185 313.749 395.224 317.198C408.524 318.63 420.43 322.832 433.236 326.175C433.305 319.312 432.748 312.461 432.309 305.616C425.742 305.16 420.057 302.602 415.705 297.513C411.928 293.096 409.957 287.438 410.479 281.622Q410.53 281.074 410.61 280.53Q410.689 279.986 410.796 279.447Q410.903 278.907 411.037 278.374Q411.172 277.84 411.333 277.315Q411.494 276.789 411.682 276.272Q411.87 275.755 412.084 275.249Q412.299 274.742 412.538 274.247Q412.778 273.752 413.042 273.27Q413.307 272.788 413.596 272.32Q413.884 271.852 414.197 271.399Q414.509 270.946 414.844 270.51Q415.179 270.074 415.536 269.655Q415.893 269.237 416.27 268.837Q416.648 268.437 417.045 268.057Q417.443 267.677 417.859 267.318Q418.276 266.959 418.71 266.621C422.558 263.61 426.641 262.492 431.342 261.716Z"/>
	<path fill="#FEFEFE" d="M515.954 376.272C515.535 375.5 515.427 375.124 515.276 374.286C516.213 370.594 518.757 367.621 521.055 364.672C540.596 339.594 573.477 324.357 604.612 320.629Q606.766 320.362 608.93 320.188Q611.094 320.013 613.263 319.931Q615.432 319.849 617.602 319.859Q619.773 319.869 621.941 319.972Q624.109 320.075 626.271 320.27Q628.433 320.464 630.585 320.751Q632.736 321.038 634.874 321.416Q637.011 321.794 639.131 322.263Q641.25 322.732 643.348 323.29Q645.445 323.849 647.517 324.497Q649.589 325.144 651.631 325.879Q653.673 326.614 655.683 327.436Q657.692 328.257 659.664 329.163Q661.637 330.069 663.569 331.059Q665.501 332.048 667.389 333.119Q669.277 334.19 671.118 335.34C677.081 339.047 682.54 343.446 688.062 347.766C683.257 349.181 677.951 349.731 672.999 350.536Q658.52 352.853 644.015 355.006Q600.075 361.741 556.276 369.347C542.939 371.615 529.041 372.828 515.954 376.272Z"/>
	<path fill="#FEFEFE" d="M310.405 347.322C337.405 327.646 367.83 315.986 401.633 321.183C434.578 326.249 464.113 342.799 484.032 369.736C485.24 371.369 486.033 373.021 486.555 374.978C486.289 376.104 485.829 376.593 485.054 377.432C468.89 373.889 452.658 371.376 436.381 368.498Q394.65 361.042 352.833 354.08C343.36 352.499 333.892 350.848 324.401 349.379C319.755 348.66 314.995 348.326 310.405 347.322Z"/>
	<path fill="#E16349" d="M487.807 379.774C488.086 379.331 488.214 379.1 488.575 378.674C490.679 376.193 494.659 375.275 497.743 374.982C502.846 374.497 509.541 375.126 513.612 378.433C513.122 399.524 513.616 420.706 513.599 441.809L513.587 580.656L513.56 647.452C513.568 657.679 512.536 669.869 514.075 679.861C504.047 681.899 497.875 682.468 487.908 679.294C488.861 657.625 488.037 634.526 488.04 612.683L487.989 480.119L488.015 410.395C488.025 402.007 488.995 387.402 487.807 379.774Z"/>
	<path fill="#FEFEFE" d="M487.807 379.774C488.086 379.331 488.214 379.1 488.575 378.674C490.679 376.193 494.659 375.275 497.743 374.982C502.846 374.497 509.541 375.126 513.612 378.433C513.238 379.717 513.29 380.429 512.058 381.162C507.486 383.886 497.225 383.981 492.19 382.378C490.664 381.892 488.765 381.103 487.807 379.774Z"/>
	<path fill="#FEFEFE" d="M497.956 203.723C511.717 203.815 524.141 207.602 535.473 215.523C552.919 227.718 559.732 244.116 563.319 264.344C568.481 265.009 573.172 266.172 577.255 269.588C580.945 272.676 583.337 277.05 583.607 281.888Q583.636 282.366 583.641 282.845Q583.645 283.323 583.625 283.802Q583.604 284.28 583.559 284.756Q583.513 285.233 583.443 285.707Q583.373 286.18 583.279 286.649Q583.184 287.119 583.066 287.583Q582.947 288.046 582.804 288.503Q582.662 288.96 582.495 289.409Q582.329 289.858 582.14 290.298Q581.95 290.738 581.739 291.167Q581.527 291.596 581.293 292.014Q581.059 292.432 580.804 292.837Q580.548 293.242 580.272 293.633Q579.996 294.024 579.7 294.4Q579.404 294.777 579.089 295.137Q578.774 295.497 578.441 295.841C574.018 300.37 568.365 301.795 562.258 301.964C561.561 311.483 560.954 321.076 559.822 330.552C540.339 339.874 522.31 354.294 511.689 373.334C507.564 372.048 503.55 371.773 499.262 371.61C495.881 371.935 492.826 372.468 489.603 373.55C477.731 352.269 458.451 338.37 436.847 328.148Q436.571 315.105 434.963 302.159C430.105 302.148 426.053 301.646 421.89 298.905C417.793 296.207 414.783 291.961 413.839 287.127Q413.75 286.664 413.685 286.197Q413.62 285.73 413.58 285.26Q413.54 284.79 413.524 284.318Q413.509 283.847 413.518 283.375Q413.527 282.904 413.561 282.434Q413.595 281.963 413.653 281.495Q413.712 281.027 413.794 280.563Q413.877 280.099 413.984 279.639Q414.091 279.18 414.222 278.727Q414.353 278.274 414.508 277.828Q414.662 277.382 414.84 276.945Q415.017 276.509 415.217 276.082Q415.417 275.654 415.64 275.239Q415.862 274.823 416.106 274.419Q416.349 274.015 416.614 273.625Q416.878 273.234 417.163 272.858C421.46 267.072 427.432 265.541 434.143 264.487C435.756 249.856 441.323 236.021 451.247 225.047C463.698 211.279 479.659 204.718 497.956 203.723Z"/>
</svg>
